# xmcd
#
# Track frame offsets: 
#        150
#        28654
#        49374
#        66470
#        83205
#        102442
#        118423
#        143408
#        156823
#        175890
#
# Disc length: 2560 seconds
#
# Revision: 3
# Processed by: cddbd v1.5.2PL0 Copyright (c) Steve Scherf et al.
# Submitted via: ExactAudioCopy v0.99pb5
#
DISCID=8d09fe0a
DTITLE=Kal David - Never A Dull Moment
DYEAR=1992
DGENRE=Blues
TTITLE0=Wishing Well
TTITLE1=A Nickel And A Nail
TTITLE2=Love Is Hurtin' Thing
TTITLE3=I Only Have Love For You
TTITLE4=Let's Make A Million Dollars
TTITLE5=Hang On In There
TTITLE6=Devil In Me
TTITLE7=Messin' With The Kind
TTITLE8=Lost Without You
TTITLE9=Fool For You
EXTD=
EXTT0=
EXTT1=
EXTT2=
EXTT3=
EXTT4=
EXTT5=
EXTT6=
EXTT7=
EXTT8=
EXTT9=
PLAYORDER=
